<svg xmlns="http://www.w3.org/2000/svg" xmlns:xlink="http://www.w3.org/1999/xlink" viewBox="0 0 360.06 379"><defs><style>.cls-1{fill:#333;}.cls-2{fill:#303c42;}.cls-3{fill:#947b21;}.cls-4{opacity:0.1;}.cls-4,.cls-6{isolation:isolate;}.cls-5{fill:#c38355;}.cls-6{fill:#fff;opacity:0.2;}.cls-7{fill:#fdb913;}.cls-8{fill:#9e5f2c;}.cls-9{fill:url(#Degradado_sin_nombre);}.cls-10{fill:none;stroke:#333;stroke-miterlimit:10;stroke-width:7px;}</style><linearGradient id="Degradado_sin_nombre" x1="88.69" y1="593.86" x2="98.47" y2="589.31" gradientTransform="matrix(21.33, 0, 0, -21.33, -1802.99, 12834.33)" gradientUnits="userSpaceOnUse"><stop offset="0" stop-color="#fff" stop-opacity="0.2"/><stop offset="1" stop-color="#fff" stop-opacity="0"/></linearGradient></defs><title>takis_logo</title><g id="Ebene_2" data-name="Ebene 2"><g id="Ebene_1-2" data-name="Ebene 1"><path class="cls-1" d="M61.45,49.5l12.1,14.66-6.11,5L55.33,54.55l-4.68,3.87-4.87-5.91L61.24,39.74l4.88,5.91Z"/><path class="cls-1" d="M81,42.61l3.78,5.94-1.93,1.22,3.4,5.36-6.69,4.25L70.43,45.07q-2.66-4.16-1.84-7.89c.54-2.49,2.17-4.61,4.91-6.35s5-2.22,7.18-1.63,4.14,2.33,6,5.23L95.9,49l-6.69,4.25-9-14.09a4.45,4.45,0,0,0-1.47-1.63,1.44,1.44,0,0,0-1.45.2q-1.56,1-.08,3.33L79,43.84Z"/><path class="cls-1" d="M95.48,19.52l11.07,24.26-7.21,3.29L88.27,22.82Zm13.84-6.31-1.38,13.91,12.42,10.35-8.11,3.7-11.6-10.89,1.26-13.69Z"/><path class="cls-1" d="M121.51,9.39l8.41,25.3-7.53,2.5L114,11.89Z"/><path class="cls-1" d="M140.34,4.32l1.8,7.38a4.75,4.75,0,0,0-1.36,0,2.09,2.09,0,0,0-1.35,1,2.22,2.22,0,0,0-.24,1.71,4.32,4.32,0,0,0,1.16,1.81l.84.88a11.06,11.06,0,0,1,2.89,5,8.8,8.8,0,0,1-1.13,7A9.29,9.29,0,0,1,137,33.37a8.89,8.89,0,0,1-3.88,0l-1.83-7.5a3.88,3.88,0,0,0,2.13.23,2.59,2.59,0,0,0,1.54-1,1.9,1.9,0,0,0,.32-1.61,7.8,7.8,0,0,0-1.69-2.23,12.66,12.66,0,0,1-3.21-5.65,9,9,0,0,1,1.08-6.95,8.71,8.71,0,0,1,5.59-4.16A9.89,9.89,0,0,1,140.34,4.32Z"/><path class="cls-1" d="M170.5,0a13.16,13.16,0,0,1,9.92,3.61A13.56,13.56,0,0,1,185,13.27a13.54,13.54,0,0,1-3.56,10.12,14.06,14.06,0,0,1-19.8,1A13.47,13.47,0,0,1,157,14.73,13.38,13.38,0,0,1,160.62,4.6,13.88,13.88,0,0,1,170.5,0Zm.17,7.85a5.56,5.56,0,0,0-4.06,2,6,6,0,0,0-1.49,4.42,6,6,0,0,0,1.95,4.23,5.73,5.73,0,0,0,8.31-.42,6,6,0,0,0,1.48-4.43,6.06,6.06,0,0,0-1.93-4.25A5.58,5.58,0,0,0,170.67,7.87Z"/><path class="cls-1" d="M189.91.59l7.91.55L196.72,17a3.61,3.61,0,0,0,.42,2.5,3.26,3.26,0,0,0,2.3.78l.41,0L199.31,28l-2.1-.14a8.9,8.9,0,0,1-6.57-3,9.73,9.73,0,0,1-1.92-7.17Z"/><path class="cls-1" d="M213.16,3.07l-3.84,26.38-7.84-1.14,3.83-26.38Z"/><path class="cls-1" d="M238.94,8.83,221,33.45,216.44,3.33l8.92,2.18.39,8.66,4.6-7.44Z"/><path class="cls-1" d="M252.45,24.85l-2,5.57-4.86-1.78a2.73,2.73,0,0,0-1.51-.22,1.2,1.2,0,0,0-.78.84,1.16,1.16,0,0,0,.05,1.19,4.12,4.12,0,0,0,1.63.88l5,1.83-2.62,7.16-5.85-2.15c-2.75-1-4.62-2.43-5.59-4.28a7.72,7.72,0,0,1-.1-6.49l3.59-9.81a7.87,7.87,0,0,1,4.11-4.83,8.61,8.61,0,0,1,6.53.15l6.47,2.37-2.63,7.19-4.75-1.74c-1.28-.47-2.08-.29-2.38.54a1.19,1.19,0,0,0,.08,1.19,3.65,3.65,0,0,0,1.53.88Z"/><path class="cls-1" d="M250.35,41.51l7.83-15.43a9.38,9.38,0,0,1,13.43-4.42q4,2,5,5.49T275.25,35l-7.71,15.19-7.07-3.59,7.71-15.18c.73-1.46.58-2.44-.45-3s-1.87,0-2.6,1.42L257.42,45.1Z"/><path class="cls-1" d="M297.1,37.12a13.19,13.19,0,0,1,5.53,9,14,14,0,1,1-25.24-5.85,13.38,13.38,0,0,1,9.12-5.69A13.87,13.87,0,0,1,297.1,37.12Zm-4.74,6.26a5.55,5.55,0,0,0-4.44-.94,6.32,6.32,0,0,0-5,7.07,5.72,5.72,0,0,0,6.78,4.83,6.39,6.39,0,0,0,5-7.08A5.59,5.59,0,0,0,292.36,43.38Zm5.45-15.58a3.5,3.5,0,1,1-2.62-.61A3.38,3.38,0,0,1,297.81,27.8Zm7.48,5.32a3.5,3.5,0,1,1-2.62-.61A3.4,3.4,0,0,1,305.29,33.12Z"/><path class="cls-1" d="M312,49.63,317.82,55l-10.67,11.7a3.63,3.63,0,0,0-1.23,2.23,3.33,3.33,0,0,0,1.33,2l.3.27-5.22,5.72-1.55-1.43a8.88,8.88,0,0,1-3.29-6.42,9.71,9.71,0,0,1,2.94-6.82Z"/><path class="cls-2" d="M284.37,216.94c-10.54-10.55-26.13-14.66-43.86-11.35a84.41,84.41,0,0,0-27.68,10.83V151a23.81,23.81,0,0,0-15.05-22.22l-14.87-6V79a6,6,0,0,0-6-6v-18a6,6,0,0,0-6-6H147a6,6,0,0,0-6,6V73a6,6,0,0,0-6,6v43.83l-14.87,6a23.81,23.81,0,0,0-15,22.22V312.43a24,24,0,0,0,23.94,23.94H188.9a22.83,22.83,0,0,0,8-1.67,51.63,51.63,0,0,0,12.69,1.71,64.32,64.32,0,0,0,11.6-1.08c16.94-3.08,34-12.5,48-26.52C298.72,279.31,305.52,238.09,284.37,216.94Z"/><path class="cls-3" d="M260.79,300.39C248.47,312.7,233.67,321,219.1,323.6c-13.77,2.53-25.59-.36-33.27-8-16.48-16.49-9.68-50.12,15.17-75,12.31-12.31,27.12-20.56,41.69-23.21a51.87,51.87,0,0,1,9.4-.89c9.72,0,18,3.07,23.87,8.93C292.44,241.92,285.63,275.55,260.79,300.39Z"/><path class="cls-4" d="M281.45,233.46c-.88,15.55-9.11,33.42-23.91,48.22-12.32,12.32-27.12,20.56-41.69,23.21-13.76,2.53-25.59-.36-33.27-8a28.73,28.73,0,0,1-5.49-8c-.6,10.55,2.08,20.06,8.74,26.73,7.68,7.68,19.5,10.57,33.27,8,14.57-2.65,29.37-10.9,41.69-23.21C282.12,279.06,290,251.33,281.45,233.46Z"/><path class="cls-2" d="M275.72,237.64a12,12,0,0,1-12-12,6,6,0,0,0-12,0,24,24,0,0,0,24,23.94,6,6,0,1,0,0-12Z"/><rect class="cls-5" x="152.94" y="61.05" width="11.97" height="11.97"/><rect class="cls-6" x="152.94" y="61.05" width="2.99" height="11.97"/><rect class="cls-4" x="161.98" y="61.05" width="2.99" height="11.97"/><path class="cls-7" d="M129.06,324.44a12,12,0,0,1-12-12V151a11.93,11.93,0,0,1,7.53-11.12l18.64-7.46A6,6,0,0,0,147,126.9V85H171V126.9a6,6,0,0,0,3.76,5.55l18.65,7.46A11.92,11.92,0,0,1,200.89,151v73.81a107.67,107.67,0,0,0-8.36,7.29c-1.33,1.34-2.37,2.8-3.61,4.18v-73.5a6,6,0,0,0-6-6H135a6,6,0,0,0-6,6V306.48a6,6,0,0,0,6,6h34.61A39.92,39.92,0,0,0,177.36,324c.16.16.36.27.52.42Z"/><path class="cls-6" d="M169.65,312.47H166.6A43.57,43.57,0,0,0,172.11,324c.12.16.26.27.37.42h5.4c-.16-.15-.36-.26-.52-.42A39.92,39.92,0,0,1,169.65,312.47Z"/><path class="cls-6" d="M129.06,312.47V151c0-4.92,2.11-9.29,5.37-11.12l13.32-7.46c1.62-.9,2.69-3.11,2.69-5.55V85H147V126.9a6,6,0,0,1-3.77,5.55l-18.64,7.46A11.93,11.93,0,0,0,117.08,151V312.47a12,12,0,0,0,12,12h8.55C132.89,324.44,129.06,319.08,129.06,312.47Z"/><path class="cls-4" d="M193.37,139.91l-18.65-7.46A6,6,0,0,1,171,126.9V85h-3.42V126.9c0,2.44,1.06,4.65,2.69,5.55l13.32,7.46c3.26,1.83,5.37,6.2,5.37,11.12v85.28c1.24-1.38,2.28-2.84,3.61-4.18a107.67,107.67,0,0,1,8.36-7.29V151A11.92,11.92,0,0,0,193.37,139.91Z"/><path class="cls-8" d="M166.05,300.5H141V168.8H177v83.69C167.43,268.61,163.64,285.73,166.05,300.5Z"/><path class="cls-9" d="M284.37,216.94c-10.54-10.55-26.13-14.66-43.86-11.35a84.41,84.41,0,0,0-27.68,10.83V151a23.81,23.81,0,0,0-15.05-22.22l-14.87-6V79a6,6,0,0,0-6-6v-18a6,6,0,0,0-6-6H147a6,6,0,0,0-6,6V73a6,6,0,0,0-6,6v43.83l-14.87,6a23.81,23.81,0,0,0-15,22.22V312.43a24,24,0,0,0,23.94,23.94H188.9a22.83,22.83,0,0,0,8-1.67,51.63,51.63,0,0,0,12.69,1.71,64.32,64.32,0,0,0,11.6-1.08c16.94-3.08,34-12.5,48-26.52C298.72,279.31,305.52,238.09,284.37,216.94Z"/><path class="cls-10" d="M305.57,74.87A176.53,176.53,0,1,1,63.39,66.46"/><line class="cls-10" x1="63.17" y1="66.63" x2="67.17" y2="63.63"/><line class="cls-10" x1="306.17" y1="75.63" x2="304.17" y2="73.63"/></g></g></svg>